# Blender 4.3.2
# www.blender.org
mtllib terrain.mtl
o Plane
v -4.068272 0.505899 4.060846
v 3.931728 -0.180302 4.060846
v -4.068272 1.020432 -3.939154
v 3.931728 0.295932 -3.939154
v -4.068272 0.208671 -2.605821
v -4.068272 -0.337859 -1.272487
v -4.068272 -0.337859 0.060846
v -4.068272 -0.337859 1.394179
v -4.068272 0.066232 2.727512
v -2.734938 0.066232 4.060846
v -1.401605 -0.337859 4.060846
v -0.068272 -0.337859 4.060846
v 1.265062 -0.180302 4.060846
v 2.598395 0.269954 4.060846
v 3.931728 0.269954 2.727512
v 3.931728 -0.180302 1.394179
v 3.931728 0.094693 0.060846
v 3.931728 0.737163 -1.272488
v 3.931728 0.252215 -2.605821
v 2.598395 1.237303 -3.939154
v 1.265061 0.295932 -3.939154
v -0.068272 -0.337859 -3.939154
v -1.401605 -0.141752 -3.939154
v -2.734938 0.208671 -3.939154
v -2.734938 -0.183528 2.727512
v -2.734938 -0.337859 1.394179
v -2.734938 -0.337859 0.060846
v -2.734938 -0.337859 -1.272488
v -2.734938 -0.005665 -2.605821
v -1.401605 -0.337859 2.727512
v -1.401605 -0.337859 1.394179
v -1.401605 -0.337859 0.060846
v -1.401605 -0.141752 -1.272488
v -1.401605 0.941387 -2.605821
v -0.068272 -0.337859 2.727512
v -0.068272 -0.337859 1.394179
v -0.068272 -0.337859 0.060846
v -0.068272 -0.337859 -1.272488
v -0.068272 -0.141752 -2.605821
v 1.265062 0.269954 2.727512
v 1.265062 -0.180302 1.394179
v 1.265062 -0.337859 0.060846
v 1.265062 -0.337859 -1.272488
v 1.265062 -0.173568 -2.605821
v 2.598395 1.172740 2.727512
v 2.598395 0.269954 1.394179
v 2.598395 -0.225733 0.060846
v 2.598395 0.094693 -1.272488
v 2.598395 0.366552 -2.605821
vn 0.5089 0.7208 0.4707
vn 0.4614 0.7578 0.4614
vn 0.2512 0.9557 0.1536
vn 0.5334 0.6566 -0.5334
vn 0.0236 0.9891 -0.1455
vn -0.3569 0.8811 0.3103
vn 0.2989 0.9063 -0.2989
vn 0.1765 0.9420 -0.2855
vn -0.0000 1.0000 -0.0000
vn 0.1471 0.9152 0.3751
vn 0.2855 0.9420 -0.1765
vn 0.1142 0.9869 -0.1142
vn -0.1413 0.9606 0.2393
vn 0.1440 0.9790 0.1440
vn 0.5334 0.6566 0.5334
vn -0.1174 0.9931 -0.0000
vn 0.0236 0.9891 0.1455
vn -0.3047 0.9024 0.3047
vn -0.3047 0.9024 -0.3047
vn -0.0832 0.9896 -0.1169
vn -0.0838 0.9965 -0.0000
vn -0.3065 0.9447 0.1164
vn 0.4890 0.7223 0.4890
vn 0.4890 0.7223 -0.4890
vn 0.3018 0.8936 -0.3322
vn -0.2275 0.9468 0.2275
vn 0.0837 0.9764 0.1991
vn 0.0854 0.9958 0.0327
vn 0.1568 0.9751 0.1568
vn -0.4828 0.6797 -0.5522
vn 0.1440 0.9790 -0.1440
vn -0.4091 0.8607 0.3031
vn -0.5089 0.7208 0.4707
vn 0.1811 0.9667 -0.1811
vn -0.0000 0.9934 -0.1150
vn -0.0000 0.9703 0.2418
vn 0.1150 0.9934 -0.0000
vn -0.1440 0.9790 0.1440
vn -0.4828 0.6797 0.5522
vn -0.3965 0.8698 0.2937
vn -0.3965 0.8698 -0.2937
vn -0.1166 0.9863 -0.1166
vn -0.0000 0.9925 0.1223
vn -0.4890 0.7223 0.4890
vn -0.4890 0.7223 -0.4890
vn -0.3018 0.8936 -0.3322
vn -0.3008 0.9273 0.2228
vn -0.3689 0.9107 0.1857
vn 0.3047 0.9024 0.3047
vn 0.3047 0.9024 -0.3047
vn -0.2291 0.9533 0.1966
vn -0.3982 0.8264 0.3982
vn -0.4125 0.8561 -0.3114
vt 0.833333 0.833333
vt 1.000000 1.000000
vt 0.833333 1.000000
vt 0.000000 0.833333
vt 0.166667 1.000000
vt 0.000000 1.000000
vt 0.166667 0.833333
vt 0.333333 1.000000
vt 0.500000 0.833333
vt 0.333333 0.833333
vt 0.666667 0.833333
vt 0.500000 1.000000
vt 0.666667 1.000000
vt 0.166667 0.000000
vt 0.000000 0.166667
vt 0.000000 0.000000
vt 0.166667 0.166667
vt 0.000000 0.333333
vt 0.166667 0.333333
vt 0.000000 0.500000
vt 0.166667 0.500000
vt 0.000000 0.666667
vt 0.333333 0.000000
vt 0.333333 0.166667
vt 0.333333 0.333333
vt 0.333333 0.500000
vt 0.166667 0.666667
vt 0.333333 0.666667
vt 0.500000 0.000000
vt 0.500000 0.166667
vt 0.500000 0.333333
vt 0.500000 0.666667
vt 0.666667 0.000000
vt 0.666667 0.333333
vt 0.666667 0.500000
vt 0.500000 0.500000
vt 0.666667 0.666667
vt 0.833333 0.000000
vt 0.666667 0.166667
vt 0.833333 0.333333
vt 0.833333 0.500000
vt 0.833333 0.666667
vt 1.000000 0.166667
vt 0.833333 0.166667
vt 1.000000 0.333333
vt 1.000000 0.500000
vt 1.000000 0.833333
vt 1.000000 0.000000
vt 1.000000 0.666667
s 0
f 49/1/1 4/2/1 20/3/1
f 5/4/2 24/5/2 3/6/2
f 29/7/3 23/8/3 24/5/3
f 39/9/4 23/8/4 34/10/4
f 44/11/5 22/12/5 39/9/5
f 49/1/6 21/13/6 44/11/6
f 10/14/7 9/15/7 1/16/7
f 25/17/8 8/18/8 9/15/8
f 26/19/9 7/20/9 8/18/9
f 27/21/9 6/22/9 7/20/9
f 6/22/10 29/7/10 5/4/10
f 11/23/11 25/17/11 10/14/11
f 30/24/12 26/19/12 25/17/12
f 31/25/9 27/21/9 26/19/9
f 32/26/9 28/27/9 27/21/9
f 33/28/13 29/7/13 28/27/13
f 12/29/9 30/24/9 11/23/9
f 35/30/9 31/25/9 30/24/9
f 36/31/9 32/26/9 31/25/9
f 32/26/14 38/32/14 33/28/14
f 33/28/15 39/9/15 34/10/15
f 13/33/16 35/30/16 12/29/16
f 35/30/16 41/34/16 36/31/16
f 36/31/9 42/35/9 37/36/9
f 37/36/9 43/37/9 38/32/9
f 38/32/17 44/11/17 39/9/17
f 14/38/18 40/39/18 13/33/18
f 40/39/19 46/40/19 41/34/19
f 41/34/20 47/41/20 42/35/20
f 47/41/21 43/37/21 42/35/21
f 48/42/22 44/11/22 43/37/22
f 14/38/23 15/43/23 45/44/23
f 15/43/24 46/40/24 45/44/24
f 16/45/25 47/41/25 46/40/25
f 17/46/26 48/42/26 47/41/26
f 48/42/27 19/47/27 49/1/27
f 49/1/28 19/47/28 4/2/28
f 5/4/29 29/7/29 24/5/29
f 29/7/30 34/10/30 23/8/30
f 39/9/31 22/12/31 23/8/31
f 44/11/32 21/13/32 22/12/32
f 49/1/33 20/3/33 21/13/33
f 10/14/34 25/17/34 9/15/34
f 25/17/35 26/19/35 8/18/35
f 26/19/9 27/21/9 7/20/9
f 27/21/9 28/27/9 6/22/9
f 6/22/36 28/27/36 29/7/36
f 11/23/37 30/24/37 25/17/37
f 30/24/9 31/25/9 26/19/9
f 31/25/9 32/26/9 27/21/9
f 32/26/38 33/28/38 28/27/38
f 33/28/39 34/10/39 29/7/39
f 12/29/9 35/30/9 30/24/9
f 35/30/9 36/31/9 31/25/9
f 36/31/9 37/36/9 32/26/9
f 32/26/9 37/36/9 38/32/9
f 33/28/14 38/32/14 39/9/14
f 13/33/40 40/39/40 35/30/40
f 35/30/41 40/39/41 41/34/41
f 36/31/42 41/34/42 42/35/42
f 37/36/9 42/35/9 43/37/9
f 38/32/43 43/37/43 44/11/43
f 14/38/44 45/44/44 40/39/44
f 40/39/45 45/44/45 46/40/45
f 41/34/46 46/40/46 47/41/46
f 47/41/47 48/42/47 43/37/47
f 48/42/48 49/1/48 44/11/48
f 14/38/49 2/48/49 15/43/49
f 15/43/50 16/45/50 46/40/50
f 16/45/51 17/46/51 47/41/51
f 17/46/52 18/49/52 48/42/52
f 48/42/53 18/49/53 19/47/53
